<svg width="44.000000" height="44.000000" viewBox="0 0 44 44" fill="none" xmlns="http://www.w3.org/2000/svg" xmlns:xlink="http://www.w3.org/1999/xlink">
	<desc>
			Created with Pixso.
	</desc>
	<defs>
		<filter id="filter_29_30_dd" x="0.000000" y="0.000000" width="44.000000" height="44.000000" filterUnits="userSpaceOnUse" color-interpolation-filters="sRGB">
			<feFlood flood-opacity="0" result="BackgroundImageFix"/>
			<feGaussianBlur in="BackgroundImage" stdDeviation="5.12151"/>
			<feComposite in2="SourceAlpha" operator="in" result="effect_backgroundBlur_1"/>
			<feBlend mode="normal" in="SourceGraphic" in2="effect_backgroundBlur_1" result="shape"/>
		</filter>
	</defs>
	<g filter="url(#filter_29_30_dd)">
		<circle id="Ellipse 5" cx="22.000000" cy="22.000000" r="22.000000" fill="#FAF4EA" fill-opacity="0.700000"/>
		<circle id="Ellipse 5" cx="22.000000" cy="22.000000" r="21.615887" stroke="#31261A" stroke-opacity="1.000000" stroke-width="0.768227"/>
	</g>
	<path id="Arrow 1" d="M14.41 22L19.36 26.94C19.75 27.34 19.75 27.96 19.36 28.36C18.96 28.75 18.34 28.75 17.94 28.36L12.29 22.7C11.89 22.31 11.89 21.68 12.29 21.29L17.94 15.63C18.34 15.24 18.96 15.24 19.36 15.63C19.75 16.03 19.75 16.65 19.36 17.05L14.41 22Z" fill="#FAF4EA" fill-opacity="0.700000" fill-rule="nonzero"/>
	<path id="Arrow 1" d="M15.41 23L19.36 26.94C19.75 27.34 19.75 27.96 19.36 28.36C18.96 28.75 18.34 28.75 17.94 28.36L12.29 22.7C11.89 22.31 11.89 21.68 12.29 21.29L17.94 15.63C18.34 15.24 18.96 15.24 19.36 15.63C19.75 16.03 19.75 16.65 19.36 17.05L15.41 21L29.76 21L29.76 23L15.41 23Z" fill="#31261A" fill-opacity="1.000000" fill-rule="evenodd"/>
</svg>
